<svg id="Capa_1" data-name="Capa 1" xmlns="http://www.w3.org/2000/svg" viewBox="0 0 40 40"><defs><style>.cls-1,.cls-3{fill:#ffbb59;}.cls-2{fill:#fff;}.cls-3{stroke:#ffbb59;}</style></defs><circle class="cls-1" cx="20" cy="20" r="20"/><path class="cls-2" d="M8,10.17a1,1,0,1,0,0,2Zm2.22,1,1-.2a1,1,0,0,0-1-.8Zm-.53,2.4a1,1,0,0,0,1.17.79,1,1,0,0,0,.79-1.18Zm2.75,7.65a1,1,0,0,0,0,2Zm11.11,1v1a1,1,0,0,0,.9-.55ZM28,13.38l.89.45A1,1,0,0,0,28,12.38Zm-17.33-1a1,1,0,0,0,0,2Zm.79,10a1,1,0,0,0,2-.4Zm.19-9.24a1,1,0,0,0-1.18-.78,1,1,0,0,0-.78,1.17Zm1.5,9.75a1,1,0,0,0,0-1.42,1,1,0,0,0-1.41,0ZM9.88,24.75,9.17,24Zm13.65,2.89a1,1,0,0,0,0-2Zm0-1h-1a1,1,0,0,0,.3.71Zm2.23,2.21-.71.71a1,1,0,0,0,.71.29Zm-11.11,0-.87-.5a1,1,0,0,0-.13.5Zm0,2.21h-1a1,1,0,0,0,.13.5ZM8,12.17H10.2v-2H8Zm1.24-.81.45,2.21,2-.39L11.18,11Zm3.2,11.86H23.53v-2H12.42Zm12-.55,4.44-8.84-1.78-.9-4.45,8.84ZM28,12.38H10.65v2H28ZM13.4,22l-1.77-8.84-2,.39,1.77,8.85Zm-1.68-.51L9.17,24l1.41,1.42,2.55-2.53ZM9.17,24a2.11,2.11,0,0,0,1.49,3.6v-2s-.06,0-.06,0,0,0,0-.05a.13.13,0,0,1,0-.06s0,0,0-.05Zm1.49,3.6H23.53v-2H10.66Zm13.87-1a1.23,1.23,0,0,1,1.23-1.21v-2a3.22,3.22,0,0,0-3.23,3.21Zm1.23-1.21A1.22,1.22,0,0,1,27,26.64h2a3.22,3.22,0,0,0-3.22-3.21ZM27,26.64a1.22,1.22,0,0,1-1.22,1.21v2A3.22,3.22,0,0,0,29,26.64Zm-.52,1.5-2.22-2.21-1.41,1.42,2.22,2.21Zm-11,1.21a1.23,1.23,0,0,1,1.38-.56l.51-1.94a3.23,3.23,0,0,0-3.62,1.5Zm1.38-.56a1.21,1.21,0,0,1,.9,1.17h2a3.22,3.22,0,0,0-2.39-3.11Zm.9,1.17a1.21,1.21,0,0,1-.9,1.16l.51,1.94A3.22,3.22,0,0,0,19.79,30Zm-.9,1.16a1.23,1.23,0,0,1-1.38-.56l-1.73,1a3.23,3.23,0,0,0,3.62,1.5Zm-1.24-.06V28.85h-2v2.21Z" transform="translate(0 0)"/><circle class="cls-2" cx="27.98" cy="13.17" r="6"/><path class="cls-3" d="M30.51,12.69H28.45v-2a.47.47,0,0,0-.94,0v2H25.45a.47.47,0,0,0-.47.48.48.48,0,0,0,.47.47h2.06v2a.49.49,0,0,0,.13.34.47.47,0,0,0,.81-.34v-2h2.06a.48.48,0,0,0,0-1Z" transform="translate(0 0)"/></svg>