<svg xmlns="http://www.w3.org/2000/svg" viewBox="0 0 2371.61 451"><defs><style>.cls-1{fill:none;}.cls-2{fill:#e78900;stroke:#e78900;stroke-miterlimit:10;}</style></defs><g id="Capa_1" data-name="Capa 1"><line class="cls-1" x1="149.32" y1="212.77" x2="116.79" y2="212.77"/><circle class="cls-2" cx="225.5" cy="225.5" r="225"/><path d="M6006.5,7227.07l320.54,29.8,127.72-48.75H6005.05Z" transform="translate(-6004.41 -6974.5)"/><path d="M6006.47,7173.36,6327,7143.55l127.72,48.75H6005Z" transform="translate(-6004.41 -6974.5)"/></g><g id="Capa_2" data-name="Capa 2"><path d="M6542.54,7067.44v58.5H6503v-60.5q0-29.49,10.75-47.75a64.8,64.8,0,0,1,31-27q20.25-8.74,48.25-8.75,28.5,0,44.75,7.5t16.25,18.5a22,22,0,0,1-2.25,10,32.62,32.62,0,0,1-6.25,8.5,90.11,90.11,0,0,0-22.5-8.25,111.39,111.39,0,0,0-26-3.25q-30.49,0-42.5,12.5T6542.54,7067.44Zm-39.5,36.5h40v212a61.64,61.64,0,0,1-7.5,2.25,45.48,45.48,0,0,1-11,1.25q-10.5,0-16-4.25t-5.5-13.75Zm32.5,27.5v-32.5h106a24.45,24.45,0,0,1,3,6.25,29.28,29.28,0,0,1,1.5,9.75q0,8-4,12.25t-11.5,4.25Z" transform="translate(-6004.41 -6974.5)"/><path d="M6901,7201.44q0,37-14,64.5t-39.5,42.5q-25.5,15-60,15t-60.25-15q-25.76-15-39.75-42.5t-14-64.5q0-37.5,14.25-64.75a103,103,0,0,1,40-42.25q25.74-15,59.75-15t59.5,15q25.5,15,39.75,42.25T6901,7201.44Zm-113.5-89q-33.51,0-53.25,23.75t-19.75,65.25q0,42,19.25,65.5t53.75,23.5q34,0,53.25-23.75t19.25-65.25q0-41.49-19.25-65.25T6787.54,7112.44Z" transform="translate(-6004.41 -6974.5)"/><path d="M7177.53,7201.44q0,37-14,64.5t-39.5,42.5q-25.5,15-60,15t-60.25-15q-25.76-15-39.75-42.5t-14-64.5q0-37.5,14.25-64.75a103,103,0,0,1,40-42.25q25.76-15,59.75-15t59.5,15q25.5,15,39.75,42.25T7177.53,7201.44Zm-113.5-89q-33.49,0-53.25,23.75T6991,7201.44q0,42,19.25,65.5t53.75,23.5q34,0,53.25-23.75t19.25-65.25q0-41.49-19.25-65.25T7064,7112.44Z" transform="translate(-6004.41 -6974.5)"/><path d="M7397,7277.44v-168l40-.5v170q0,9.51-4.25,15.25t-13.25,11.25q-10,6.51-28.5,12.25t-42.5,5.75q-36,0-63.5-12.5a93.32,93.32,0,0,1-43-39.25q-15.49-26.74-15.5-69.25,0-43.5,15.25-70.5t41.25-39.75q26-12.75,57-12.75a122.92,122.92,0,0,1,37,5.5q17.51,5.51,27.5,13.5v37q-9.49-9.49-24.75-16.25t-35.75-6.75a83.82,83.82,0,0,0-38,8.75q-17.51,8.76-28,28.75t-10.5,53.5q0,45.51,22,66.25t58.5,20.75q17.51,0,28.75-3.75A98.13,98.13,0,0,0,7397,7277.44Zm40-158.5-40,.5v-126.5a62.6,62.6,0,0,1,7.75-2.25,46.41,46.41,0,0,1,10.75-1.25q11,0,16.25,4.25t5.25,13.75Z" transform="translate(-6004.41 -6974.5)"/><path class="cls-2" d="M7676,7255.44q0,32-23.5,50t-68,18q-38,0-62-11.75t-24-25.75a23.94,23.94,0,0,1,13-21,185.06,185.06,0,0,0,31.5,17.5q18,8,41,8,52,0,52-35,0-14.49-8.75-23.75t-25.75-13.25l-41.5-11q-30.51-7.5-44.5-23.25t-14-39.25q0-26.49,21.5-46t65.5-19.5q23.49,0,41,4.75t27.25,12.5q9.75,7.76,9.75,16.75a20.66,20.66,0,0,1-3.25,11.5,20.14,20.14,0,0,1-8.75,7.5,161.66,161.66,0,0,0-15.25-8.75,106.89,106.89,0,0,0-21.75-8,109.52,109.52,0,0,0-27.5-3.25q-22,0-35.5,8.5t-13.5,24a27.21,27.21,0,0,0,7.75,19.25q7.74,8.25,24.75,12.25l34.5,8.5q34,8,51,25.25T7676,7255.44Z" transform="translate(-6004.41 -6974.5)"/><path d="M7753.52,7226.94l-2-31.5,151-20.5q-2-27.49-19-45.25t-47-17.75q-31,0-51.25,22.25T7765,7197.94v11q3.49,40,26.25,60.75t62.25,20.75q21,0,38-7t27-15a30.05,30.05,0,0,1,8.75,8.25,18.65,18.65,0,0,1,3.25,10.75q0,9.51-10.75,17.75t-28.5,13.25a146.74,146.74,0,0,1-39.75,5q-38.51,0-66.75-14a98.34,98.34,0,0,1-43.5-41.75q-15.26-27.75-15.25-67.75,0-28.5,8.25-50.75t23-37.75a99,99,0,0,1,35.25-23.75,118.07,118.07,0,0,1,44.5-8.25q30.49,0,53.75,13a94.26,94.26,0,0,1,36.5,36.25q13.24,23.25,13.25,53.25,0,11-5,15.75t-14,5.75Z" transform="translate(-6004.41 -6974.5)"/><path d="M8080.52,7079.44q43.5,0,69,19.5t25.5,61.5v118.5q0,11-4.25,16.75T8158,7306.44q-12,6.51-32,12t-45,5.5q-47,0-72.75-18.5t-25.75-53.5q0-32.49,21.75-49.75t60.25-20.75l71-7v-14q0-25-15-36.5t-40.5-11.5a128,128,0,0,0-39.25,6,215.08,215.08,0,0,0-33.25,13.5,43,43,0,0,1-7.25-8.25,17,17,0,0,1-3.25-9.75q0-13,14.5-20a123,123,0,0,1,31.25-10.75A182.3,182.3,0,0,1,8080.52,7079.44Zm.5,211.5q21,0,34.75-4.25t19.75-8.25v-72.5l-62,6.5q-26,2-38.5,11.5t-12.5,27.5q0,18.51,14.75,29T8081,7290.94Z" transform="translate(-6004.41 -6974.5)"/><path d="M8288.51,7199.94h-40v-181a62.6,62.6,0,0,1,7.75-2.25,48.65,48.65,0,0,1,11.25-1.25q10.5,0,15.75,4.25t5.25,13.75Zm-40-15h40v69q0,20,11.5,28.25t31.5,8.25a69.81,69.81,0,0,0,19-3,79.43,79.43,0,0,0,17.5-7,33.71,33.71,0,0,1,5.5,7.5,21.24,21.24,0,0,1,2.5,10.5q0,11-13,18t-36,7q-35,0-56.75-15.5t-21.75-51.5Zm20.5-61v-33h101.5a24.08,24.08,0,0,1,3,6.5,29.86,29.86,0,0,1,1.5,9.5q0,8-4,12.5t-11,4.5Z" transform="translate(-6004.41 -6974.5)"/></g></svg>